<?xml version="1.0" encoding="utf-8"?>
<!-- Generator: Adobe Illustrator 26.4.1, SVG Export Plug-In . SVG Version: 6.00 Build 0)  -->
<svg version="1.1" id="图层_1" xmlns="http://www.w3.org/2000/svg" xmlns:xlink="http://www.w3.org/1999/xlink" x="0px" y="0px"
	 viewBox="0 0 200 200" style="enable-background:new 0 0 200 200;" xml:space="preserve">
<style type="text/css">
	.st0{fill:#6DAFFF;}
</style>
<path class="st0" d="M160.3,139c4.4,11.1,0.3,23.4-9.3,28.8c-12.9,7.2-28.5,1.7-33.9-12.1c-4.9-12.4-9.8-24.8-14.7-37.2
	c-0.2-0.6-0.5-1.1-1-2.2c-0.9,4.2-1.7,8-2.6,11.7c-2.9,11.2-6.9,21.9-14.4,30.9c-5.8,6.9-13.1,11.6-22.4,11.9
	c-10.4,0.3-18.5-5.4-22.4-15.3C29,128.3,18.3,101.2,7.7,74c-2.3-5.8-4.9-11.5-6.3-17.5c-2.7-11.4,3.4-22.4,13.7-26
	c11.8-4.1,24.2,0.4,29.3,11.2c3.4,7.2,6.1,14.8,9,22.2c8.9,22.6,17.7,45.1,26.5,67.7c0.3,0.6,0.6,1.3,0.8,1.9c0.2,0,0.4,0.1,0.7,0.1
	c1.2-4,2.5-7.9,3.5-11.9c2.8-11.8,4-23.7,3.4-35.9c-0.3-5.3-2.5-10-4.2-14.8c-1.5-4.2-3.4-8.2-4.6-12.5C75.9,46,82,34.1,93.5,30.3
	C105.7,26.2,118.3,32,123,44C135.5,75.7,147.9,107.4,160.3,139z"/>
<path class="st0" d="M194.3,41.1c-5.1-8.5-12.8-12.2-22.6-11.6c-8.7,0.5-14.9,4.8-18.4,12.9c-5.7,13.1,0.9,28.1,14.1,31.6
	c1.9,0.5,3.8,0.7,5.9,1c1.9,8.9,0.2,22.4-9.9,27.5c-0.4,0.2-0.8,0.6-1.1,0.9c-1.5,1.7-1.3,4.1,0.7,5.1c1.1,0.5,2.5,0.8,3.7,0.7
	c4.3-0.3,8-2.1,11.3-4.7c10.8-8.4,17.2-19.5,20.3-32.7C200.6,61.1,200,50.7,194.3,41.1z"/>
</svg>
