<?xml version="1.0" encoding="utf-8"?>
<!-- Generator: Adobe Illustrator 26.0.0, SVG Export Plug-In . SVG Version: 6.00 Build 0)  -->
<svg version="1.1" id="图层_1" xmlns="http://www.w3.org/2000/svg" xmlns:xlink="http://www.w3.org/1999/xlink" x="0px" y="0px"
	 viewBox="0 0 24 24" style="enable-background:new 0 0 24 24;" xml:space="preserve">
<style type="text/css">
	.st0{fill:none;}
	.st1{fill:#6ABEFF;}
</style>
<path class="st0" d="M0,0h24v24H0V0z"/>
<path class="st1" d="M9.6,17.5c0.6,0.6,0.2,1.7-0.7,1.7c-1.1,0.1-2.2-0.4-3.1-1.2c-0.8-0.8-1.2-1.9-1.2-3c0-0.8,1-1.2,1.6-0.7
	l0.1,0.1L9.6,17.5L9.6,17.5z"/>
<path class="st1" d="M20.1,3.9c1,1,1.1,2.4,0.5,3.5l-0.1,0.2l0,0c0.7,2.5,0.2,5.1-1.4,7.1L18.8,15l-0.2,0.2l-2.1,2.1l-0.1,0.1
	c-0.4,0.6-0.6,1.4-0.5,2.1l0,0.2l0,0.2c0.3,1-0.9,1.6-1.6,1.1l-0.1-0.1L3.1,9.6c-0.7-0.7,0-1.9,1-1.7C4.9,8.2,5.8,8,6.6,7.5l0.1-0.1
	l2.1-2.1c2-1.8,4.7-2.5,7.3-1.9l0.3,0.1l0,0c1.1-0.7,2.4-0.6,3.4,0.2l0.1,0.1L20.1,3.9L20.1,3.9z"/>
</svg>
