<?xml version="1.0" standalone="no"?><!DOCTYPE svg PUBLIC "-//W3C//DTD SVG 1.1//EN" "http://www.w3.org/Graphics/SVG/1.1/DTD/svg11.dtd"><svg t="1702989201777" class="icon" viewBox="0 0 1024 1024" version="1.1" xmlns="http://www.w3.org/2000/svg" p-id="9676" xmlns:xlink="http://www.w3.org/1999/xlink" width="24" height="24"><path d="M931.84 562.56c-12.16-26.24-36.48-63.36-51.84-86.4 3.84-11.52 6.4-26.88 6.4-44.16 0-32-15.36-55.04-28.8-69.76 0.64-6.4 0.64-13.44 0.64-19.84C858.24 153.6 703.36 0 512.64 0s-345.6 153.6-345.6 342.4c0 7.04 0 14.08 0.64 21.12-12.8 14.72-27.52 37.76-27.52 68.48 0 17.28 2.56 32 6.4 44.16-16 23.04-39.68 60.16-51.84 86.4-28.8 63.36-32 149.12-7.04 195.84 12.16 22.4 30.72 37.12 53.12 40.96 26.24 4.48 49.28-5.76 68.48-20.48 4.48 8.96 8.96 17.92 14.08 26.24-39.04 20.48-76.8 53.12-69.76 104.96 9.6 65.28 85.12 112.64 180.48 112.64 76.16 0 128.64-30.72 162.56-63.36 10.88 1.92 21.76 1.92 33.28 0.64 43.52 40.32 100.48 62.72 162.56 62.72 95.36 0 171.52-47.36 180.48-112.64 7.68-51.84-30.72-85.12-69.76-104.96 5.12-8.32 9.6-17.28 14.08-26.24 19.2 15.36 42.24 24.96 68.48 20.48 21.76-3.84 40.96-17.92 53.12-40.96 24.32-46.72 21.76-132.48-7.04-195.84zM864 700.16c-8.96-9.6-18.56-24.32-25.6-38.4-7.68-16.64-24.96-26.88-43.52-25.6-19.2 1.28-35.84 14.72-40.96 33.92-0.64 3.2-1.28 6.4-1.28 9.6-1.92 19.84-14.08 79.36-51.2 108.8-12.8 10.24-19.2 26.88-16 42.88s14.08 29.44 30.08 34.56c50.56 16.64 64.64 28.8 68.48 33.92-5.12 12.8-40.32 33.92-91.52 33.92-58.88 0-94.72-28.16-114.56-51.84-13.44-16-35.84-20.48-54.4-11.52-1.92 1.28-3.2 1.28-2.56 1.28h-7.68c-3.2 0-11.52-1.92-17.28-3.84-17.28-5.76-36.48-0.64-48.64 14.08-28.8 34.56-67.2 51.84-113.28 51.84-51.2 0-86.4-21.12-91.52-33.92 3.84-4.48 17.28-16.64 68.48-33.92 15.36-5.12 26.88-18.56 30.08-34.56 3.2-16-3.2-32.64-16-42.88-37.12-30.08-49.92-89.6-51.2-108.8 0-3.2-0.64-6.4-1.28-9.6-4.48-19.2-21.12-32.64-40.96-33.92-18.56-1.28-35.84 8.96-43.52 25.6-7.04 14.08-17.28 28.8-25.6 38.4-3.84-23.04-1.92-64.64 14.08-100.48 11.52-25.6 45.44-74.88 57.6-91.52 11.52-16 12.8-35.2 1.28-50.56-1.28-2.56-5.12-11.52-5.12-25.6 0-3.2 3.2-7.68 5.76-10.24 16-8.32 25.6-26.24 23.04-45.44-1.28-11.52-2.56-23.04-2.56-33.92C256.64 202.88 371.2 89.6 512.64 89.6s256 113.28 256 252.8c0 11.52-0.64 23.04-2.56 33.92-2.56 19.84 8.32 38.4 25.6 46.72 2.56 2.56 4.48 6.4 4.48 8.96 0 14.08-3.84 23.04-5.12 25.6-11.52 15.36-10.24 34.56 1.28 50.56 12.16 16.64 46.08 65.28 57.6 91.52 16.64 35.84 17.92 76.8 14.08 100.48z m-106.88-0.64c-0.64-1.28-1.28-2.56-1.28-3.84 0.64 1.28 0.64 2.56 1.28 3.84z m-1.92-5.12c-1.92-5.12-2.56-10.24-2.56-14.72 0 5.12 1.28 10.24 2.56 14.72z m-485.76 5.12c0.64-1.28 1.28-2.56 1.28-3.2-0.64 0.64-1.28 1.92-1.28 3.2z m1.28-5.12c1.28-4.48 2.56-9.6 2.56-14.72 0 5.12-0.64 10.24-2.56 14.72z" p-id="9677"></path></svg>