<?xml version="1.0" standalone="no"?><!DOCTYPE svg PUBLIC "-//W3C//DTD SVG 1.1//EN" "http://www.w3.org/Graphics/SVG/1.1/DTD/svg11.dtd"><svg t="1696952920831" class="icon" viewBox="0 0 1024 1024" version="1.1" xmlns="http://www.w3.org/2000/svg" p-id="34788" xmlns:xlink="http://www.w3.org/1999/xlink" width="24" height="24"><path d="M640 682.666667a170.666667 170.666667 0 0 0 170.666667-170.666667V256a170.666667 170.666667 0 0 0-170.666667-170.666667H213.333333a170.666667 170.666667 0 0 0-170.666666 170.666667v533.333333a21.333333 21.333333 0 0 0 21.333333 21.333334 20.906667 20.906667 0 0 0 14.933333-6.4l85.333334-85.333334A128 128 0 0 1 256 682.666667zM128 640V256a85.333333 85.333333 0 0 1 85.333333-85.333333h426.666667a85.333333 85.333333 0 0 1 85.333333 85.333333v256a85.333333 85.333333 0 0 1-85.333333 85.333333H256a213.333333 213.333333 0 0 0-128 42.666667z m448-213.333333h42.666667a21.333333 21.333333 0 0 0 21.333333-21.333334v-42.666666a21.333333 21.333333 0 0 0-21.333333-21.333334h-42.666667a21.333333 21.333333 0 0 0-21.333333 21.333334v42.666666a21.333333 21.333333 0 0 0 21.333333 21.333334z m-170.666667 0h42.666667a21.333333 21.333333 0 0 0 21.333333-21.333334v-42.666666a21.333333 21.333333 0 0 0-21.333333-21.333334h-42.666667a21.333333 21.333333 0 0 0-21.333333 21.333334v42.666666a21.333333 21.333333 0 0 0 21.333333 21.333334zM298.666667 405.333333v-42.666666a21.333333 21.333333 0 0 0-21.333334-21.333334h-42.666666a21.333333 21.333333 0 0 0-21.333334 21.333334v42.666666a21.333333 21.333333 0 0 0 21.333334 21.333334h42.666666a21.333333 21.333333 0 0 0 21.333334-21.333334zM896 256v341.333333a170.666667 170.666667 0 0 1-170.666667 170.666667H213.333333a85.333333 85.333333 0 0 0 85.333334 85.333333h469.333333a128 128 0 0 1 90.88 37.546667l85.333333 85.333333a20.906667 20.906667 0 0 0 14.933334 6.4 21.333333 21.333333 0 0 0 21.333333-21.333333V341.333333A85.333333 85.333333 0 0 0 896 256z" p-id="34789"></path></svg>